<svg width="69" height="16" viewBox="0 0 69 16" fill="none" xmlns="http://www.w3.org/2000/svg">
<g clip-path="url(#clip0_564_14773)">
<path d="M13.4999 6.56003C13.4399 6.44003 13.3799 6.32003 13.2599 6.20003C13.1399 6.08003 13.0199 6.08003 12.8399 6.02003L9.23988 5.54003L7.61988 2.42003C7.55988 2.30003 7.43988 2.18003 7.31988 2.12003C7.07988 2.00003 6.71988 2.00003 6.47988 2.12003C6.35988 2.18003 6.23988 2.30003 6.17988 2.42003L4.55988 5.54003L0.959883 6.02003C0.779883 6.02003 0.659883 6.08003 0.539883 6.20003C0.419883 6.26003 0.359883 6.38003 0.299883 6.56003C0.239883 6.68003 0.239883 6.80003 0.299883 6.92003C0.359883 7.04003 0.419883 7.16003 0.539883 7.28003L3.17988 9.68003L2.57988 13.1C2.57988 13.22 2.57988 13.4 2.63988 13.52C2.69988 13.64 2.75988 13.76 2.87988 13.82C2.93988 13.94 3.05988 14 3.23988 14H3.29988C3.41988 14 3.53988 14 3.65988 13.94L6.89988 12.32L10.1399 13.94C10.2599 14 10.4399 14.06 10.5599 14C10.6799 14 10.8599 13.94 10.9799 13.88C11.0999 13.82 11.2199 13.7 11.2199 13.58C11.2799 13.46 11.2799 13.34 11.2799 13.16L10.6799 9.74003L13.3199 7.34003C13.4399 7.22003 13.4999 7.10003 13.5599 6.98003C13.5599 6.80003 13.5599 6.68003 13.4999 6.56003ZM12.8999 6.86003L10.0199 9.50003L10.6799 13.22V13.28L10.6199 13.34C10.5599 13.34 10.5599 13.4 10.4999 13.4C10.4399 13.4 10.4399 13.4 10.3799 13.4L6.89988 11.66L3.41988 13.4C3.35988 13.4 3.35988 13.4 3.29988 13.4C3.23988 13.4 3.23988 13.4 3.17988 13.34L3.11988 13.28V13.22L3.77988 9.50003L0.899883 6.86003L0.839883 6.80003V6.74003C0.839883 6.74003 0.839883 6.68003 0.899883 6.68003C0.899883 6.68003 0.959883 6.62003 1.01988 6.62003L4.97988 6.08003L6.71988 2.72003L6.77988 2.66003C6.83988 2.60003 6.95988 2.60003 7.01988 2.66003L7.07988 2.72003L8.81988 6.08003L12.7799 6.62003C12.8399 6.62003 12.8399 6.62003 12.8999 6.68003L12.9599 6.74003V6.80003C12.8999 6.80003 12.8999 6.86003 12.8999 6.86003Z" fill="#F89818"/>
<path d="M6.47988 2.12C6.35988 2.18 6.23988 2.3 6.17988 2.42L4.55988 5.54L0.959883 6.02C0.779883 6.02 0.659883 6.08 0.539883 6.2C0.419883 6.26 0.359883 6.38 0.299883 6.56C0.239883 6.68 0.239883 6.8 0.299883 6.92C0.359883 7.04 0.419883 7.16 0.539883 7.28L3.17988 9.68L2.57988 13.1C2.57988 13.22 2.57988 13.4 2.63988 13.52C2.69988 13.64 2.75988 13.76 2.87988 13.82C2.93988 13.94 3.05988 14 3.23988 14C3.35988 14 3.53988 14 3.65988 13.94L6.89988 12.32V2C6.77988 2 6.59988 2.06 6.47988 2.12Z" fill="#F89818"/>
</g>
<g clip-path="url(#clip1_564_14773)">
<path d="M27.2999 6.56003C27.2399 6.44003 27.1799 6.32003 27.0599 6.20003C26.9399 6.08003 26.8199 6.08003 26.6399 6.02003L23.0399 5.54003L21.4199 2.42003C21.3599 2.30003 21.2399 2.18003 21.1199 2.12003C20.8799 2.00003 20.5199 2.00003 20.2799 2.12003C20.1599 2.18003 20.0399 2.30003 19.9799 2.42003L18.3599 5.54003L14.7599 6.02003C14.5799 6.02003 14.4599 6.08003 14.3399 6.20003C14.2199 6.26003 14.1599 6.38003 14.0999 6.56003C14.0399 6.68003 14.0399 6.80003 14.0999 6.92003C14.1599 7.04003 14.2199 7.16003 14.3399 7.28003L16.9799 9.68003L16.3799 13.1C16.3799 13.22 16.3799 13.4 16.4399 13.52C16.4999 13.64 16.5599 13.76 16.6799 13.82C16.7399 13.94 16.8599 14 17.0399 14H17.0999C17.2199 14 17.3399 14 17.4599 13.94L20.6999 12.32L23.9399 13.94C24.0599 14 24.2399 14.06 24.3599 14C24.4799 14 24.6599 13.94 24.7799 13.88C24.8999 13.82 25.0199 13.7 25.0199 13.58C25.0799 13.46 25.0799 13.34 25.0799 13.16L24.4799 9.74003L27.1199 7.34003C27.2399 7.22003 27.2999 7.10003 27.3599 6.98003C27.3599 6.80003 27.3599 6.68003 27.2999 6.56003ZM26.6999 6.86003L23.8199 9.50003L24.4799 13.22V13.28L24.4199 13.34C24.3599 13.34 24.3599 13.4 24.2999 13.4C24.2399 13.4 24.2399 13.4 24.1799 13.4L20.6999 11.66L17.2199 13.4C17.1599 13.4 17.1599 13.4 17.0999 13.4C17.0399 13.4 17.0399 13.4 16.9799 13.34L16.9199 13.28V13.22L17.5799 9.50003L14.6999 6.86003L14.6399 6.80003V6.74003C14.6399 6.74003 14.6399 6.68003 14.6999 6.68003C14.6999 6.68003 14.7599 6.62003 14.8199 6.62003L18.7799 6.08003L20.5199 2.72003L20.5799 2.66003C20.6399 2.60003 20.7599 2.60003 20.8199 2.66003L20.8799 2.72003L22.6199 6.08003L26.5799 6.62003C26.6399 6.62003 26.6399 6.62003 26.6999 6.68003L26.7599 6.74003V6.80003C26.6999 6.80003 26.6999 6.86003 26.6999 6.86003Z" fill="#F89818"/>
</g>
<g clip-path="url(#clip2_564_14773)">
<path d="M41.1 6.56003C41.04 6.44003 40.98 6.32003 40.86 6.20003C40.74 6.08003 40.62 6.08003 40.44 6.02003L36.84 5.54003L35.22 2.42003C35.16 2.30003 35.04 2.18003 34.92 2.12003C34.68 2.00003 34.32 2.00003 34.08 2.12003C33.96 2.18003 33.84 2.30003 33.78 2.42003L32.16 5.54003L28.56 6.02003C28.38 6.02003 28.26 6.08003 28.14 6.20003C28.02 6.26003 27.96 6.38003 27.9 6.56003C27.84 6.68003 27.84 6.80003 27.9 6.92003C27.96 7.04003 28.02 7.16003 28.14 7.28003L30.78 9.68003L30.18 13.1C30.18 13.22 30.18 13.4 30.24 13.52C30.3 13.64 30.36 13.76 30.48 13.82C30.54 13.94 30.66 14 30.84 14H30.9C31.02 14 31.14 14 31.26 13.94L34.5 12.32L37.74 13.94C37.86 14 38.04 14.06 38.16 14C38.28 14 38.46 13.94 38.58 13.88C38.7 13.82 38.82 13.7 38.82 13.58C38.88 13.46 38.88 13.34 38.88 13.16L38.28 9.74003L40.92 7.34003C41.04 7.22003 41.1 7.10003 41.16 6.98003C41.16 6.80003 41.16 6.68003 41.1 6.56003ZM40.5 6.86003L37.62 9.50003L38.28 13.22V13.28L38.22 13.34C38.16 13.34 38.16 13.4 38.1 13.4C38.04 13.4 38.04 13.4 37.98 13.4L34.5 11.66L31.02 13.4C30.96 13.4 30.96 13.4 30.9 13.4C30.84 13.4 30.84 13.4 30.78 13.34L30.72 13.28V13.22L31.38 9.50003L28.5 6.86003L28.44 6.80003V6.74003C28.44 6.74003 28.44 6.68003 28.5 6.68003C28.5 6.68003 28.56 6.62003 28.62 6.62003L32.58 6.08003L34.32 2.72003L34.38 2.66003C34.44 2.60003 34.56 2.60003 34.62 2.66003L34.68 2.72003L36.42 6.08003L40.38 6.62003C40.44 6.62003 40.44 6.62003 40.5 6.68003L40.56 6.74003V6.80003C40.5 6.80003 40.5 6.86003 40.5 6.86003Z" fill="#F89818"/>
</g>
<g clip-path="url(#clip3_564_14773)">
<path d="M54.8998 6.56003C54.8398 6.44003 54.7798 6.32003 54.6598 6.20003C54.5398 6.08003 54.4198 6.08003 54.2398 6.02003L50.6398 5.54003L49.0198 2.42003C48.9598 2.30003 48.8398 2.18003 48.7198 2.12003C48.4798 2.00003 48.1198 2.00003 47.8798 2.12003C47.7598 2.18003 47.6398 2.30003 47.5798 2.42003L45.9598 5.54003L42.3598 6.02003C42.1798 6.02003 42.0598 6.08003 41.9398 6.20003C41.8198 6.26003 41.7598 6.38003 41.6998 6.56003C41.6398 6.68003 41.6398 6.80003 41.6998 6.92003C41.7598 7.04003 41.8198 7.16003 41.9398 7.28003L44.5798 9.68003L43.9798 13.1C43.9798 13.22 43.9798 13.4 44.0398 13.52C44.0998 13.64 44.1598 13.76 44.2798 13.82C44.3398 13.94 44.4598 14 44.6398 14H44.6998C44.8198 14 44.9398 14 45.0598 13.94L48.2998 12.32L51.5398 13.94C51.6598 14 51.8398 14.06 51.9598 14C52.0798 14 52.2598 13.94 52.3798 13.88C52.4998 13.82 52.6198 13.7 52.6198 13.58C52.6798 13.46 52.6798 13.34 52.6798 13.16L52.0798 9.74003L54.7198 7.34003C54.8398 7.22003 54.8998 7.10003 54.9598 6.98003C54.9598 6.80003 54.9598 6.68003 54.8998 6.56003ZM54.2998 6.86003L51.4198 9.50003L52.0798 13.22V13.28L52.0198 13.34C51.9598 13.34 51.9598 13.4 51.8998 13.4C51.8398 13.4 51.8398 13.4 51.7798 13.4L48.2998 11.66L44.8198 13.4C44.7598 13.4 44.7598 13.4 44.6998 13.4C44.6398 13.4 44.6398 13.4 44.5798 13.34L44.5198 13.28V13.22L45.1798 9.50003L42.2998 6.86003L42.2398 6.80003V6.74003C42.2398 6.74003 42.2398 6.68003 42.2998 6.68003C42.2998 6.68003 42.3598 6.62003 42.4198 6.62003L46.3798 6.08003L48.1198 2.72003L48.1798 2.66003C48.2398 2.60003 48.3598 2.60003 48.4198 2.66003L48.4798 2.72003L50.2198 6.08003L54.1798 6.62003C54.2398 6.62003 54.2398 6.62003 54.2998 6.68003L54.3598 6.74003V6.80003C54.2998 6.80003 54.2998 6.86003 54.2998 6.86003Z" fill="#F89818"/>
</g>
<g clip-path="url(#clip4_564_14773)">
<path d="M68.6998 6.56003C68.6398 6.44003 68.5798 6.32003 68.4598 6.20003C68.3398 6.08003 68.2198 6.08003 68.0398 6.02003L64.4398 5.54003L62.8198 2.42003C62.7598 2.30003 62.6398 2.18003 62.5198 2.12003C62.2798 2.00003 61.9198 2.00003 61.6798 2.12003C61.5598 2.18003 61.4398 2.30003 61.3798 2.42003L59.7598 5.54003L56.1598 6.02003C55.9798 6.02003 55.8598 6.08003 55.7398 6.20003C55.6198 6.26003 55.5598 6.38003 55.4998 6.56003C55.4398 6.68003 55.4398 6.80003 55.4998 6.92003C55.5598 7.04003 55.6198 7.16003 55.7398 7.28003L58.3798 9.68003L57.7798 13.1C57.7798 13.22 57.7798 13.4 57.8398 13.52C57.8998 13.64 57.9598 13.76 58.0798 13.82C58.1398 13.94 58.2598 14 58.4398 14H58.4998C58.6198 14 58.7398 14 58.8598 13.94L62.0998 12.32L65.3398 13.94C65.4598 14 65.6398 14.06 65.7598 14C65.8798 14 66.0598 13.94 66.1798 13.88C66.2998 13.82 66.4198 13.7 66.4198 13.58C66.4798 13.46 66.4798 13.34 66.4798 13.16L65.8798 9.74003L68.5198 7.34003C68.6398 7.22003 68.6998 7.10003 68.7598 6.98003C68.7598 6.80003 68.7598 6.68003 68.6998 6.56003ZM68.0998 6.86003L65.2198 9.50003L65.8798 13.22V13.28L65.8198 13.34C65.7598 13.34 65.7598 13.4 65.6998 13.4C65.6398 13.4 65.6398 13.4 65.5798 13.4L62.0998 11.66L58.6198 13.4C58.5598 13.4 58.5598 13.4 58.4998 13.4C58.4398 13.4 58.4398 13.4 58.3798 13.34L58.3198 13.28V13.22L58.9798 9.50003L56.0998 6.86003L56.0398 6.80003V6.74003C56.0398 6.74003 56.0398 6.68003 56.0998 6.68003C56.0998 6.68003 56.1598 6.62003 56.2198 6.62003L60.1798 6.08003L61.9198 2.72003L61.9798 2.66003C62.0398 2.60003 62.1598 2.60003 62.2198 2.66003L62.2798 2.72003L64.0198 6.08003L67.9798 6.62003C68.0398 6.62003 68.0398 6.62003 68.0998 6.68003L68.1598 6.74003V6.80003C68.0998 6.80003 68.0998 6.86003 68.0998 6.86003Z" fill="#F89818"/>
</g>
<defs>
<clipPath id="clip0_564_14773">
<rect width="13.8" height="12" fill="white" transform="translate(0 2)"/>
</clipPath>
<clipPath id="clip1_564_14773">
<rect width="13.8" height="12" fill="white" transform="translate(13.8 2)"/>
</clipPath>
<clipPath id="clip2_564_14773">
<rect width="13.8" height="12" fill="white" transform="translate(27.6001 2)"/>
</clipPath>
<clipPath id="clip3_564_14773">
<rect width="13.8" height="12" fill="white" transform="translate(41.3999 2)"/>
</clipPath>
<clipPath id="clip4_564_14773">
<rect width="13.8" height="12" fill="white" transform="translate(55.2 2)"/>
</clipPath>
</defs>
</svg>
