<svg width="69" height="16" viewBox="0 0 69 16" fill="none" xmlns="http://www.w3.org/2000/svg">
<g clip-path="url(#clip0_564_14809)">
<path d="M6.17988 2.42L4.55988 5.54L0.959883 6.02C0.779883 6.02 0.659883 6.08 0.539883 6.2C0.419883 6.26 0.359883 6.38 0.299883 6.56C0.239883 6.68 0.239883 6.8 0.299883 6.92C0.359883 7.04 0.419883 7.16 0.539883 7.28L3.17988 9.68L2.57988 13.1C2.57988 13.22 2.57988 13.4 2.63988 13.52C2.69988 13.64 2.75988 13.76 2.87988 13.82C2.93988 13.94 3.05988 14 3.23988 14C3.35988 14 3.53988 14 3.65988 13.94L6.89988 12.32L10.1399 13.94C10.2599 14 10.4399 14.06 10.5599 14C10.6799 14 10.8599 13.94 10.9799 13.88C11.0999 13.82 11.2199 13.7 11.2199 13.58C11.2799 13.46 11.2799 13.28 11.2799 13.16L10.6799 9.74L13.3199 7.34C13.4399 7.22 13.4999 7.1 13.5599 6.98C13.6199 6.86 13.6199 6.68 13.5599 6.56C13.4999 6.44 13.4399 6.32 13.3199 6.2C13.1999 6.08 13.0799 6.08 12.8999 6.02L9.29988 5.54L7.67988 2.42C7.61988 2.3 7.49988 2.18 7.37988 2.12C7.19988 2.06 7.01988 2 6.89988 2C6.77988 2 6.59988 2.06 6.47988 2.12C6.35988 2.18 6.23988 2.3 6.17988 2.42Z" fill="#F89818"/>
</g>
<g clip-path="url(#clip1_564_14809)">
<path d="M19.9799 2.42L18.3599 5.54L14.7599 6.02C14.5799 6.02 14.4599 6.08 14.3399 6.2C14.2199 6.26 14.1599 6.38 14.0999 6.56C14.0399 6.68 14.0399 6.8 14.0999 6.92C14.1599 7.04 14.2199 7.16 14.3399 7.28L16.9799 9.68L16.3799 13.1C16.3799 13.22 16.3799 13.4 16.4399 13.52C16.4999 13.64 16.5599 13.76 16.6799 13.82C16.7399 13.94 16.8599 14 17.0399 14C17.1599 14 17.3399 14 17.4599 13.94L20.6999 12.32L23.9399 13.94C24.0599 14 24.2399 14.06 24.3599 14C24.4799 14 24.6599 13.94 24.7799 13.88C24.8999 13.82 25.0199 13.7 25.0199 13.58C25.0799 13.46 25.0799 13.28 25.0799 13.16L24.4799 9.74L27.1199 7.34C27.2399 7.22 27.2999 7.1 27.3599 6.98C27.4199 6.86 27.4199 6.68 27.3599 6.56C27.2999 6.44 27.2399 6.32 27.1199 6.2C26.9999 6.08 26.8799 6.08 26.6999 6.02L23.0999 5.54L21.4799 2.42C21.4199 2.3 21.2999 2.18 21.1799 2.12C20.9999 2.06 20.8199 2 20.6999 2C20.5799 2 20.3999 2.06 20.2799 2.12C20.1599 2.18 20.0399 2.3 19.9799 2.42Z" fill="#F89818"/>
</g>
<g clip-path="url(#clip2_564_14809)">
<path d="M33.78 2.42L32.16 5.54L28.56 6.02C28.38 6.02 28.26 6.08 28.14 6.2C28.02 6.26 27.96 6.38 27.9 6.56C27.84 6.68 27.84 6.8 27.9 6.92C27.96 7.04 28.02 7.16 28.14 7.28L30.78 9.68L30.18 13.1C30.18 13.22 30.18 13.4 30.24 13.52C30.3 13.64 30.36 13.76 30.48 13.82C30.54 13.94 30.66 14 30.84 14C30.96 14 31.14 14 31.26 13.94L34.5 12.32L37.74 13.94C37.86 14 38.04 14.06 38.16 14C38.28 14 38.46 13.94 38.58 13.88C38.7 13.82 38.82 13.7 38.82 13.58C38.88 13.46 38.88 13.28 38.88 13.16L38.28 9.74L40.92 7.34C41.04 7.22 41.1 7.1 41.16 6.98C41.22 6.86 41.22 6.68 41.16 6.56C41.1 6.44 41.04 6.32 40.92 6.2C40.8 6.08 40.68 6.08 40.5 6.02L36.9 5.54L35.28 2.42C35.22 2.3 35.1 2.18 34.98 2.12C34.8 2.06 34.62 2 34.5 2C34.38 2 34.2 2.06 34.08 2.12C33.96 2.18 33.84 2.3 33.78 2.42Z" fill="#F89818"/>
</g>
<g clip-path="url(#clip3_564_14809)">
<path d="M54.8998 6.56003C54.8398 6.44003 54.7798 6.32003 54.6598 6.20003C54.5398 6.08003 54.4198 6.08003 54.2398 6.02003L50.6398 5.54003L49.0198 2.42003C48.9598 2.30003 48.8398 2.18003 48.7198 2.12003C48.4798 2.00003 48.1198 2.00003 47.8798 2.12003C47.7598 2.18003 47.6398 2.30003 47.5798 2.42003L45.9598 5.54003L42.3598 6.02003C42.1798 6.02003 42.0598 6.08003 41.9398 6.20003C41.8198 6.26003 41.7598 6.38003 41.6998 6.56003C41.6398 6.68003 41.6398 6.80003 41.6998 6.92003C41.7598 7.04003 41.8198 7.16003 41.9398 7.28003L44.5798 9.68003L43.9798 13.1C43.9798 13.22 43.9798 13.4 44.0398 13.52C44.0998 13.64 44.1598 13.76 44.2798 13.82C44.3398 13.94 44.4598 14 44.6398 14H44.6998C44.8198 14 44.9398 14 45.0598 13.94L48.2998 12.32L51.5398 13.94C51.6598 14 51.8398 14.06 51.9598 14C52.0798 14 52.2598 13.94 52.3798 13.88C52.4998 13.82 52.6198 13.7 52.6198 13.58C52.6798 13.46 52.6798 13.34 52.6798 13.16L52.0798 9.74003L54.7198 7.34003C54.8398 7.22003 54.8998 7.10003 54.9598 6.98003C54.9598 6.80003 54.9598 6.68003 54.8998 6.56003ZM54.2998 6.86003L51.4198 9.50003L52.0798 13.22V13.28L52.0198 13.34C51.9598 13.34 51.9598 13.4 51.8998 13.4C51.8398 13.4 51.8398 13.4 51.7798 13.4L48.2998 11.66L44.8198 13.4C44.7598 13.4 44.7598 13.4 44.6998 13.4C44.6398 13.4 44.6398 13.4 44.5798 13.34L44.5198 13.28V13.22L45.1798 9.50003L42.2998 6.86003L42.2398 6.80003V6.74003C42.2398 6.74003 42.2398 6.68003 42.2998 6.68003C42.2998 6.68003 42.3598 6.62003 42.4198 6.62003L46.3798 6.08003L48.1198 2.72003L48.1798 2.66003C48.2398 2.60003 48.3598 2.60003 48.4198 2.66003L48.4798 2.72003L50.2198 6.08003L54.1798 6.62003C54.2398 6.62003 54.2398 6.62003 54.2998 6.68003L54.3598 6.74003V6.80003C54.2998 6.80003 54.2998 6.86003 54.2998 6.86003Z" fill="#F89818"/>
<path d="M47.8798 2.12C47.7598 2.18 47.6398 2.3 47.5798 2.42L45.9598 5.54L42.3598 6.02C42.1798 6.02 42.0598 6.08 41.9398 6.2C41.8198 6.26 41.7598 6.38 41.6998 6.56C41.6398 6.68 41.6398 6.8 41.6998 6.92C41.7598 7.04 41.8198 7.16 41.9398 7.28L44.5798 9.68L43.9798 13.1C43.9798 13.22 43.9798 13.4 44.0398 13.52C44.0998 13.64 44.1598 13.76 44.2798 13.82C44.3398 13.94 44.4598 14 44.6398 14C44.7598 14 44.9398 14 45.0598 13.94L48.2998 12.32V2C48.1798 2 47.9998 2.06 47.8798 2.12Z" fill="#F89818"/>
</g>
<g clip-path="url(#clip4_564_14809)">
<path d="M68.6998 6.56003C68.6398 6.44003 68.5798 6.32003 68.4598 6.20003C68.3398 6.08003 68.2198 6.08003 68.0398 6.02003L64.4398 5.54003L62.8198 2.42003C62.7598 2.30003 62.6398 2.18003 62.5198 2.12003C62.2798 2.00003 61.9198 2.00003 61.6798 2.12003C61.5598 2.18003 61.4398 2.30003 61.3798 2.42003L59.7598 5.54003L56.1598 6.02003C55.9798 6.02003 55.8598 6.08003 55.7398 6.20003C55.6198 6.26003 55.5598 6.38003 55.4998 6.56003C55.4398 6.68003 55.4398 6.80003 55.4998 6.92003C55.5598 7.04003 55.6198 7.16003 55.7398 7.28003L58.3798 9.68003L57.7798 13.1C57.7798 13.22 57.7798 13.4 57.8398 13.52C57.8998 13.64 57.9598 13.76 58.0798 13.82C58.1398 13.94 58.2598 14 58.4398 14H58.4998C58.6198 14 58.7398 14 58.8598 13.94L62.0998 12.32L65.3398 13.94C65.4598 14 65.6398 14.06 65.7598 14C65.8798 14 66.0598 13.94 66.1798 13.88C66.2998 13.82 66.4198 13.7 66.4198 13.58C66.4798 13.46 66.4798 13.34 66.4798 13.16L65.8798 9.74003L68.5198 7.34003C68.6398 7.22003 68.6998 7.10003 68.7598 6.98003C68.7598 6.80003 68.7598 6.68003 68.6998 6.56003ZM68.0998 6.86003L65.2198 9.50003L65.8798 13.22V13.28L65.8198 13.34C65.7598 13.34 65.7598 13.4 65.6998 13.4C65.6398 13.4 65.6398 13.4 65.5798 13.4L62.0998 11.66L58.6198 13.4C58.5598 13.4 58.5598 13.4 58.4998 13.4C58.4398 13.4 58.4398 13.4 58.3798 13.34L58.3198 13.28V13.22L58.9798 9.50003L56.0998 6.86003L56.0398 6.80003V6.74003C56.0398 6.74003 56.0398 6.68003 56.0998 6.68003C56.0998 6.68003 56.1598 6.62003 56.2198 6.62003L60.1798 6.08003L61.9198 2.72003L61.9798 2.66003C62.0398 2.60003 62.1598 2.60003 62.2198 2.66003L62.2798 2.72003L64.0198 6.08003L67.9798 6.62003C68.0398 6.62003 68.0398 6.62003 68.0998 6.68003L68.1598 6.74003V6.80003C68.0998 6.80003 68.0998 6.86003 68.0998 6.86003Z" fill="#F89818"/>
</g>
<defs>
<clipPath id="clip0_564_14809">
<rect width="13.8" height="12" fill="white" transform="translate(0 2)"/>
</clipPath>
<clipPath id="clip1_564_14809">
<rect width="13.8" height="12" fill="white" transform="translate(13.8 2)"/>
</clipPath>
<clipPath id="clip2_564_14809">
<rect width="13.8" height="12" fill="white" transform="translate(27.6001 2)"/>
</clipPath>
<clipPath id="clip3_564_14809">
<rect width="13.8" height="12" fill="white" transform="translate(41.3999 2)"/>
</clipPath>
<clipPath id="clip4_564_14809">
<rect width="13.8" height="12" fill="white" transform="translate(55.2 2)"/>
</clipPath>
</defs>
</svg>
